<svg width="64px" height="64px" viewBox="0 0 32 32" version="1.1" xmlns="http://www.w3.org/2000/svg">
    <g stroke="#8FC0A9" stroke-width="2" fill="none" stroke-linecap="round" stroke-linejoin="round">
        <path d="M16,4 C10,4 6,8 6,14 C6,19 9,21 12,24 C14,26 18,27 22,26 C26,25 28,21 28,16 C28,10 24,6 18,6 C15,6 12,9 10,12 C8,15 8,19 11,22 C13,24 17,24 20,22 C22,20 23,17 22,14 C21,11 18,10 15,11 C13,12 12,14 12,16 C12,18 14,19 16,19 C18,19 19,17 19,16" style="stroke-dasharray: 1, 2; stroke-width: 2.5;"></path>
        <path d="M4,16 C4,16 5,10 10,7" stroke="#A8D5BA" stroke-width="1.5" opacity="0.6"></path>
        <path d="M28,16 C28,16 27,22 22,25" stroke="#A8D5BA" stroke-width="1.5" opacity="0.6"></path>
    </g>
</svg>