<svg width="100" height="100" viewBox="0 0 24 24" fill="none" xmlns="http://www.w3.org/2000/svg">
  <path d="M12 2C10 2 8 3 7 5C6 7 7 9 9 10C11 11 13 10 14 12C15 14 14 16 12 17C10 18 8 17 7 15" stroke="#2D5A27" stroke-width="1.5" stroke-linecap="round"/>
  <path d="M17 7C19 9 19 12 17 14C15 16 12 16 10 14" stroke="#4E9346" stroke-width="1.5" stroke-linecap="round"/>
  <circle cx="9" cy="8" r="1" fill="#2D5A27"/>
  <circle cx="13" cy="8" r="1" fill="#2D5A27"/>
  <path d="M10 10.5C10.5 10 11.5 10 12 10.5" stroke="#2D5A27" stroke-width="0.8" stroke-linecap="round"/>
</svg>