<svg xmlns="http://www.w3.org/2000/svg" version="1.1" xmlns:xlink="http://www.w3.org/1999/xlink" width="80" height="80"><svg xmlns="http://www.w3.org/2000/svg" version="1.1" xmlns:xlink="http://www.w3.org/1999/xlink" width="80" height="80"><svg xmlns="http://www.w3.org/2000/svg" viewBox="0 0 80 80"><defs><style>.cls-1{fill:#2f866a;}</style></defs><title>icon</title><g id="OBJECTS"><path class="cls-1" d="M59.92,73.67a5,5,0,0,0,.47-3.61,5.43,5.43,0,0,0-2.55-3.45A7.63,7.63,0,0,0,56,65.87a10.53,10.53,0,0,0-1.35-.23h0c-.12,0-.43,0-.63,0-.45,0-.9,0-1.34,0-.88,0-1.73,0-2.56,0a6.37,6.37,0,0,1-4.28-1.55,5.57,5.57,0,0,1-1.85-4.12,5.73,5.73,0,0,1,2-4.22,3.73,3.73,0,0,1,2-1,1.16,1.16,0,0,1,1.27.81,2.33,2.33,0,0,1-.2,2,7.74,7.74,0,0,1-1.62,2,17,17,0,0,1-4.76,3,14.37,14.37,0,0,1-5.44,1.45A4.14,4.14,0,0,1,33,61.5a6,6,0,0,1,.28-5.15,9,9,0,0,1,4.21-3.64,21.82,21.82,0,0,1,5.82-1.65A65.19,65.19,0,0,1,55.9,50.6c2.15.07,4.3.16,6.48.18a27.6,27.6,0,0,0,6.67-.56A13.23,13.23,0,0,0,72.32,49a9.78,9.78,0,0,0,2.76-2.28,8.49,8.49,0,0,0,1.73-3.18,6.7,6.7,0,0,0,0-3.74,7.39,7.39,0,0,0-1.91-3.13,12.33,12.33,0,0,0-2.79-2.09,29.61,29.61,0,0,0-6.18-2.46A34,34,0,0,0,53,31a18.47,18.47,0,0,0-6.42,1.68,6.69,6.69,0,0,0-2.63,2.47,5.47,5.47,0,0,0-.71,3.63A4.12,4.12,0,0,0,44,40.66a4.59,4.59,0,0,0,1.47,1.25,8.69,8.69,0,0,0,3.32.9,14.49,14.49,0,0,0,6.37-1,28.37,28.37,0,0,0,10-6.9,33.74,33.74,0,0,0,6.53-9.61,22.4,22.4,0,0,0,1.79-5.42,8.4,8.4,0,0,0,0-3,5.66,5.66,0,0,0-1.39-2.81,7.92,7.92,0,0,0-2.4-1.71,13.89,13.89,0,0,0-2.6-.92,15.09,15.09,0,0,0-5.29-.32,22.22,22.22,0,0,0-9.19,3.38,20.31,20.31,0,0,0-6.46,6.24,8.1,8.1,0,0,0-1.33,4.28,4.47,4.47,0,0,0,.63,2.3A4.39,4.39,0,0,0,47.13,29a5.87,5.87,0,0,0,4.13.41,8.29,8.29,0,0,0,3.2-1.79,17.82,17.82,0,0,0,2.17-2.32A24.75,24.75,0,0,0,58.28,23a15.42,15.42,0,0,0,2-4.46,10.29,10.29,0,0,0,.26-3.72,9.4,9.4,0,0,0-.59-2.26,7,7,0,0,0-.33-.72s-.12-.25-.38-.7A11.35,11.35,0,0,0,57.82,9.3a12.94,12.94,0,0,0-7.58-3.8,18,18,0,0,0-6,.28,30.51,30.51,0,0,0-6.59,2.3,34,34,0,0,0-6.81,4.13,17.63,17.63,0,0,0-5.46,7.18,14,14,0,0,0-.69,2.36c-.07.41-.13.83-.17,1.25a6.77,6.77,0,0,0,0,1.35A6.27,6.27,0,0,0,25.37,27a4,4,0,0,0,1.12,1.16,3.16,3.16,0,0,0,1.67.52,3.25,3.25,0,0,0,1.66-.42,4.36,4.36,0,0,0,1.22-1,8.72,8.72,0,0,0,1.42-2.42,26.51,26.51,0,0,0,1.59-5.1,25,25,0,0,0,.5-5.54,4.39,4.39,0,0,0-.41-1.68,3.52,3.52,0,0,0-1.23-1.38A8.45,8.45,0,0,0,30,10.05a13.61,13.61,0,0,0-11.36,3.23,20.19,20.19,0,0,0-6.15,10.57,14.84,14.84,0,0,0-.18,6.44,10.24,10.24,0,0,0,1.22,3.14,6.32,6.32,0,0,0,2.6,2.49,4.13,4.13,0,0,0,1.95.42A4.41,4.41,0,0,0,20,35.83,5.12,5.12,0,0,0,22.43,33a5.45,5.45,0,0,0-.18-3.74A7,7,0,0,0,20,26.32a10,10,0,0,0-6.69-1.69,8,8,0,0,0-3.47,1A9.33,9.33,0,0,0,7.26,28,21.53,21.53,0,0,0,2.92,40.57,13.29,13.29,0,0,0,3.22,44a9.15,9.15,0,0,0,1.52,3.27A8.29,8.29,0,0,0,11,50.76a6.35,6.35,0,0,0,3.66-.87A5.65,5.65,0,0,0,16.85,43a4.44,4.44,0,0,0-1.24-1.65,4.83,4.83,0,0,0-1.79-.91,6.2,6.2,0,0,0-3.77.27,7.89,7.89,0,0,0-3,2.13,13.77,13.77,0,0,0-1.93,2.83,19,19,0,0,0-1.36,3.06,14.41,14.41,0,0,0-.73,6.72,10.86,10.86,0,0,0,3,6.11A8.81,8.81,0,0,0,9,63.49a9.31,9.31,0,0,0,3.4.63,11.84,11.84,0,0,0,6.34-2,15.39,15.39,0,0,0,4.45-4.65,26.75,26.75,0,0,0,2.62-5.59c.67-1.92,1.15-3.82,1.78-5.58a19.94,19.94,0,0,1,1.07-2.54c.22-.39.43-.79.67-1.17l.37-.56.13-.17a18.61,18.61,0,0,1,2.79-3.11L38,34.1a16.34,16.34,0,0,0-3.36,1.08,13.21,13.21,0,0,0-3.27,2.16,20.48,20.48,0,0,0-3.11,3.43l-.13.2a6.9,6.9,0,0,0-.42.63c-.27.42-.51.87-.75,1.31a21.65,21.65,0,0,0-1.18,2.78c-.67,1.88-1.15,3.78-1.78,5.59a25.07,25.07,0,0,1-2.43,5.19,13.46,13.46,0,0,1-3.86,4.05,9.85,9.85,0,0,1-5.27,1.63,6.79,6.79,0,0,1-4.93-2,9,9,0,0,1-2.44-5,12.53,12.53,0,0,1,.65-5.79,16.32,16.32,0,0,1,2.89-5.22,6.19,6.19,0,0,1,2.2-1.62,4.31,4.31,0,0,1,2.55-.19,2.52,2.52,0,0,1,1.74,1.44,3.6,3.6,0,0,1,.06,2.47,3.52,3.52,0,0,1-1.51,2,4.5,4.5,0,0,1-2.55.59,6.31,6.31,0,0,1-4.72-2.65,8.36,8.36,0,0,1-1.45-5.52,19.51,19.51,0,0,1,3.93-11.4,7.4,7.4,0,0,1,2-1.93,6.22,6.22,0,0,1,2.63-.71,8,8,0,0,1,5.37,1.3,4.25,4.25,0,0,1,1.72,4.44,3.21,3.21,0,0,1-1.5,1.76,2.25,2.25,0,0,1-2.11.06c-1.41-.68-2.38-2.52-2.75-4.28a12.8,12.8,0,0,1,.18-5.57,18.15,18.15,0,0,1,5.52-9.53,11.6,11.6,0,0,1,9.7-2.8,6.86,6.86,0,0,1,2.2.8,1.72,1.72,0,0,1,.78,1.56,23.09,23.09,0,0,1-.46,5,24,24,0,0,1-1.47,4.72c-.56,1.45-1.56,2.74-2.46,2.67A1.48,1.48,0,0,1,27,26a4.28,4.28,0,0,1-.57-1.81,4.68,4.68,0,0,1,0-1c0-.35.08-.7.14-1.05a12.66,12.66,0,0,1,.59-2,15.7,15.7,0,0,1,4.88-6.37,31.44,31.44,0,0,1,6.4-3.88C42.72,7.8,46.79,7,50,7.44a11,11,0,0,1,6.43,3.21,8.34,8.34,0,0,1,1.15,1.48,5.7,5.7,0,0,1,.31.56,3.88,3.88,0,0,1,.26.57A7.2,7.2,0,0,1,58.59,15a8.29,8.29,0,0,1-.21,3,13.47,13.47,0,0,1-1.75,3.9,21,21,0,0,1-3.45,4.18,6.32,6.32,0,0,1-2.42,1.38A3.93,3.93,0,0,1,48,27.24,2.44,2.44,0,0,1,46.74,25a6.24,6.24,0,0,1,1-3.21,18.35,18.35,0,0,1,5.85-5.62A20,20,0,0,1,62,13.11a13.5,13.5,0,0,1,4.61.26,8.49,8.49,0,0,1,4,2.07,4.84,4.84,0,0,1,.9,4.18,20.65,20.65,0,0,1-1.65,4.92,32,32,0,0,1-6.15,9.05A26.46,26.46,0,0,1,54.45,40a12.31,12.31,0,0,1-5.51.84,6.57,6.57,0,0,1-2.55-.66,2.29,2.29,0,0,1-1.27-1.7,3.55,3.55,0,0,1,.48-2.32,4.65,4.65,0,0,1,1.88-1.73A16.43,16.43,0,0,1,53.17,33a32.11,32.11,0,0,1,12.24,1,27.81,27.81,0,0,1,5.74,2.28,7.52,7.52,0,0,1,3.79,4.07,5.6,5.6,0,0,1-1.36,5.1,7.91,7.91,0,0,1-2.21,1.82,11.3,11.3,0,0,1-2.78,1,26.25,26.25,0,0,1-6.19.51c-2.14,0-4.28-.11-6.43-.18a66.52,66.52,0,0,0-13,.48,23.78,23.78,0,0,0-6.35,1.81,11,11,0,0,0-5.11,4.5,8.28,8.28,0,0,0-.94,3.39,7.3,7.3,0,0,0,.61,3.49A5.73,5.73,0,0,0,33.65,65a7,7,0,0,0,3.43.82A16.38,16.38,0,0,0,43.3,64.2a18.82,18.82,0,0,0,5.31-3.33,9.66,9.66,0,0,0,2-2.57,4.87,4.87,0,0,0,.53-1.72,3.79,3.79,0,0,0-.26-1.91,3.32,3.32,0,0,0-1.27-1.57,3.13,3.13,0,0,0-2-.45,5.53,5.53,0,0,0-3.09,1.46,7.73,7.73,0,0,0-2.63,5.68,7.6,7.6,0,0,0,2.49,5.59,7.3,7.3,0,0,0,2.64,1.56,10.56,10.56,0,0,0,2.86.5c.92.06,1.8,0,2.65,0,.42,0,.83,0,1.24.05l.54,0h0a7.74,7.74,0,0,1,1.09.18,5.89,5.89,0,0,1,1.39.54,6.12,6.12,0,0,1,2.19,2.26A5.82,5.82,0,0,1,59.92,73.67Z"></path></g></svg></svg><style>@media (prefers-color-scheme: light) { :root { filter: none; } }
@media (prefers-color-scheme: dark) { :root { filter: none; } }
</style></svg>