<svg width="64px" height="64px" viewBox="0 0 32 32" version="1.1" xmlns="http://www.w3.org/2000/svg">
    <g fill="none" stroke-linecap="round" stroke-linejoin="round">
        <path d="M14,16 C15,15 17,17 16,18" stroke="#A8D5BA" stroke-width="3"></path>
        
        <g stroke="#8FC0A9" stroke-width="2">
            <path d="M14,15 C12,12 10,14 8,10 M8,10 L11,10 M8,10 L9,13"></path>
            <path d="M17,16 C20,16 21,14 24,15 M24,15 L22,13 M24,15 L23,17"></path>
             <path d="M20,16 C21,19 23,20 25,22" stroke-dasharray="2,2"></path>
            <path d="M16,18 C16,22 14,24 12,24 C10,24 11,21 13,20"></path>
        </g>
        <path d="M6,16 L7,17 M26,10 L27,11 M10,26 L11,25" stroke="#A8D5BA" stroke-width="1.5"></path>
    </g>
</svg>